<svg width="351" height="356" viewBox="0 0 351 356" fill="none" xmlns="http://www.w3.org/2000/svg">
<g id="doodles">
<g id="name">
<path id="Vector 103" d="M15.2129 313.926C16.6854 316.562 18.548 318.763 20.3777 321.158" pathLength="1" stroke="white" stroke-width="2" stroke-linecap="round" stroke-dasharray="1 1"/>
<path id="Vector 104" d="M25.5128 311.092C22.3659 318.806 18.9393 326.378 13.7196 332.927" pathLength="1" stroke="white" stroke-width="2" stroke-linecap="round" stroke-dasharray="1 1"/>
<path id="Vector 105" d="M30.5357 308.343C30.45 310.617 30.0858 316.296 33.6187 315.869C36.8134 315.482 37.8055 309.719 38.2553 307.022" pathLength="1" stroke="white" stroke-width="2" stroke-linecap="round" stroke-dasharray="1 1"/>
<path id="Vector 106" d="M4.52112 315.742C-2.91029 322.393 6.20743 329.622 9.29596 316.76C9.6379 315.336 11.0703 319.166 12.293 319.972" pathLength="1" stroke="white" stroke-width="2" stroke-linecap="round" stroke-dasharray="1 1"/>
<path id="Vector 107" d="M42.9092 304.538C43.1918 306.753 43.0842 308.689 43.9704 311.176C44.0032 311.268 46.7423 303.806 48.3664 302.735C50.6977 301.199 51.4867 305.797 51.6316 306.969C51.7809 308.176 53.7166 302.884 55.2774 301.063C58.2941 297.542 59.7716 302.365 59.7756 305.069" pathLength="1" stroke="white" stroke-width="2" stroke-linecap="round" stroke-dasharray="1 1"/>
<path id="Vector 108" d="M65.0098 297.137C64.8627 299.828 64.0645 303.587 65.4846 306.019" pathLength="1" stroke="white" stroke-width="2" stroke-linecap="round" stroke-dasharray="1 1"/>
<path id="Vector 109" d="M64.9049 289.947C65.2733 290.983 65.8712 291.954 66.425 292.211C67.2116 292.197 68.136 290.395 68.5003 289.895" pathLength="1" stroke="white" stroke-width="2" stroke-linecap="round" stroke-dasharray="1 1"/>
<path id="Vector 110" d="M68.3398 312.367C67.7917 315.654 68.1923 318.673 68.7089 321.884" pathLength="1" stroke="white" stroke-width="2" stroke-linecap="round" stroke-dasharray="1 1"/>
<path id="Vector 111" d="M76.0596 309.09C76.2585 316.637 77.4101 330.823 72.3552 337.165" pathLength="1" stroke="white" stroke-width="2" stroke-linecap="round" stroke-dasharray="1 1"/>
<path id="Vector 112" d="M80.4999 315.697C82.4018 314.615 84.3038 313.534 92.2456 310.91C100.187 308.286 114.112 304.152 125.699 301.36C137.286 298.568 146.115 297.243 151.204 296.543C156.293 295.843 157.375 295.808 158.807 295.825" pathLength="1" stroke="white" stroke-width="2" stroke-linecap="round" stroke-dasharray="1 1"/>
<path id="Vector 113" d="M89.2783 304.121C89.4877 304.156 89.5254 307.175 89.358 312.089C89.1733 317.511 90.2736 325.991 86.2087 330.346" pathLength="1" stroke="white" stroke-width="2" stroke-linecap="round" stroke-dasharray="1 1"/>
</g>
<g id="head">
<path id="Vector 27" d="M250.849 39.7888C251.577 39.3888 252.306 38.9887 255.596 37.7826C258.885 36.5765 264.714 34.5764 271.456 32.5156" pathLength="1" stroke="white" stroke-width="2" stroke-linecap="round" stroke-dasharray="1 1"/>
<path id="Vector 114" d="M277 1C274.153 3.75765 271.307 6.5153 266.371 10.8715C261.435 15.2277 254.497 21.0988 250.789 24.3012C247.081 27.5037 246.814 27.8595 246 28.7652" pathLength="1" stroke="white" stroke-width="2" stroke-linecap="round" stroke-dasharray="1 1"/>
</g>
<g id="arrow">
<path id="Vector 115" d="M347.337 166.928C346.875 159.811 338.843 155.826 332.737 154.147C330.907 153.644 328.752 153.164 325.864 152.772C322.975 152.38 319.418 152.09 316.846 152.029C314.355 151.971 306.588 151.776 306.099 155.449C305.267 161.709 321.571 162.758 322.694 153.051C323.91 142.546 301.693 139.201 294.6 137.842C289.446 136.855 284.628 136.268 281.841 135.957C279.054 135.645 278.444 135.626 277.98 135.596C277.515 135.566 277.215 135.525 276.905 135.483" pathLength="1" stroke="white" stroke-width="2" stroke-linecap="round" stroke-dasharray="1 1"/>
<path id="Vector 116" d="M283.214 130.005C281.505 130.972 280.455 131.486 277.315 133.183C276.346 133.707 275.902 134.091 275.56 134.398C274.524 135.33 278.327 141.726 279.123 143.363" pathLength="1" stroke="white" stroke-width="2" stroke-linecap="round" stroke-dasharray="1 1"/>
</g>
<g id="sparkles">
<path id="Vector 117" d="M47.9013 15.794C48.1546 19.744 48.2553 22.3748 48.0669 24.3348C47.9353 25.7046 47.622 27.8134 47.0642 30.0391C44.6318 37.1345 44.035 38.1225 43.7134 39.0703C43.6555 39.3045 43.6291 39.5304 43.602 39.7631" pathLength="1" stroke="#FFE593" stroke-width="2" stroke-linecap="round" stroke-dasharray="1 1"/>
<path id="Vector 118" d="M48.0576 16.7812C49.5989 21.0392 50.757 22.5305 52.2553 24.3173C53.4853 25.7841 54.9341 26.6089 56.4231 27.2859C58.8528 28.1161 60.7573 28.6665 61.4692 28.7827" pathLength="1" stroke="#FFE593" stroke-width="2" stroke-linecap="round" stroke-dasharray="1 1"/>
<path id="Vector 119" d="M43.5742 40.3945C44.9473 40.6253 46.0333 40.8336 47.269 41.3126C49.5026 42.1784 51.6986 44.0778 53.7694 46.5319C58.4224 52.0463 59.1193 53.7026 59.7824 54.5816C59.9083 54.7893 60.0022 54.9986 60.0333 54.9971C60.0643 54.9955 60.0296 54.7768 59.9939 54.5515" pathLength="1" stroke="#FFE593" stroke-width="2" stroke-linecap="round" stroke-dasharray="1 1"/>
<path id="Vector 120" d="M62.0744 29.3611C61.6053 31.0476 61.1362 32.734 60.6972 35.455C60.2582 38.1761 59.8636 41.8806 59.7059 45.0057C59.5482 48.1309 59.6394 50.5643 59.7142 51.9926C59.7889 53.4209 59.8443 53.7703 59.9539 53.9972" pathLength="1" stroke="#FFE593" stroke-width="2" stroke-linecap="round" stroke-dasharray="1 1"/>
<path id="Vector 121" d="M77.8126 35.5898C78.1104 38.8843 78.0653 42.2817 77.5908 45.3893C77.0256 49.0911 74.7081 51.5778 73 54.5898" pathLength="1" stroke="#FFE593" stroke-width="2" stroke-linecap="round" stroke-dasharray="1 1"/>
<path id="Vector 122" d="M79 35.5898C79 35.7152 79.5241 37.0955 80.9879 40.0604C81.8313 41.7687 83.2671 43.6519 84.3356 45.0598C87.2906 48.3721 88.9318 49.3822 89.9676 50.0497C90.1741 50.2082 90.4071 50.3962 91 50.5898" pathLength="1" stroke="#FFE593" stroke-width="2" stroke-linecap="round" stroke-dasharray="1 1"/>
<path id="Vector 123" d="M73 54.5898C74.6741 55.5798 76.6352 56.9148 78.7446 58.6048C81.8824 61.1189 84.4264 64.7622 86 68.5898" pathLength="1" stroke="#FFE593" stroke-width="2" stroke-linecap="round" stroke-dasharray="1 1"/>
<path id="Vector 124" d="M91 50.5898C90.692 50.7334 90.0782 51.5033 87.9601 57.2273C87.0767 59.6145 86.6133 62.8962 86.2589 64.8833C85.9045 67.4923 85.9809 68.2767 86.0968 68.5898" pathLength="1" stroke="#FFE593" stroke-width="2" stroke-linecap="round" stroke-dasharray="1 1"/>
</g>
</g>
</svg>
